<svg width="24" height="24" viewBox="0 0 24 24" fill="none" xmlns="http://www.w3.org/2000/svg">
<path d="M11.04 17.28C7.58399 17.28 4.79999 14.496 4.79999 11.04C4.79999 7.58405 7.58399 4.80005 11.04 4.80005C14.496 4.80005 17.28 7.58405 17.28 11.04C17.28 14.496 14.496 17.28 11.04 17.28ZM11.04 5.76005C8.11199 5.76005 5.75999 8.11205 5.75999 11.04C5.75999 13.968 8.11199 16.32 11.04 16.32C13.968 16.32 16.32 13.968 16.32 11.04C16.32 8.11205 13.968 5.76005 11.04 5.76005Z" fill="black"/>
<path d="M15.6873 15.0081L19.9977 19.3185L19.319 19.9972L15.0086 15.6868L15.6873 15.0081Z" fill="black"/>
</svg>
