<svg width="24" height="24" viewBox="0 0 24 24" fill="none" xmlns="http://www.w3.org/2000/svg">
<path d="M8.88666 21.3333C9.71509 21.3333 10.3867 20.6617 10.3867 19.8333C10.3867 19.0048 9.71509 18.3333 8.88666 18.3333C8.05823 18.3333 7.38666 19.0048 7.38666 19.8333C7.38666 20.6617 8.05823 21.3333 8.88666 21.3333Z" fill="black"/>
<path d="M18 21.3333C18.8284 21.3333 19.5 20.6617 19.5 19.8333C19.5 19.0048 18.8284 18.3333 18 18.3333C17.1716 18.3333 16.5 19.0048 16.5 19.8333C16.5 20.6617 17.1716 21.3333 18 21.3333Z" fill="black"/>
<path d="M15.0466 4.66659C15.0162 4.44565 15.0006 4.22293 14.9999 3.99992C15.0006 3.77691 15.0162 3.55419 15.0466 3.33325H7.65991L8.09325 4.66659H15.0466Z" fill="black"/>
<path d="M20 8.99991H19.72L18.8867 12.6666H8.88668L5.84001 3.01991C5.80706 2.91755 5.74983 2.82468 5.67322 2.74922C5.5966 2.67377 5.50287 2.61796 5.40001 2.58658L2.66668 1.74658C2.58263 1.72075 2.49432 1.71173 2.40679 1.72003C2.31926 1.72833 2.23422 1.7538 2.15653 1.79496C1.99962 1.8781 1.88217 2.02017 1.83001 2.18991C1.77785 2.35965 1.79526 2.54316 1.8784 2.70006C1.96154 2.85697 2.10361 2.97442 2.27335 3.02658L4.66668 3.75991L7.72668 13.4266L6.63335 14.3199L6.54668 14.4066C6.27624 14.7182 6.12295 15.1145 6.11321 15.527C6.10348 15.9395 6.23791 16.3425 6.49335 16.6666C6.67505 16.8875 6.90595 17.0629 7.16757 17.1787C7.42919 17.2945 7.71428 17.3474 8.00001 17.3332H19.1267C19.3035 17.3332 19.4731 17.263 19.5981 17.138C19.7231 17.013 19.7933 16.8434 19.7933 16.6666C19.7933 16.4898 19.7231 16.3202 19.5981 16.1952C19.4731 16.0701 19.3035 15.9999 19.1267 15.9999H7.89335C7.81658 15.9973 7.74178 15.9749 7.67619 15.9349C7.61059 15.895 7.55641 15.8388 7.51888 15.7717C7.48135 15.7047 7.46173 15.6292 7.46193 15.5523C7.46213 15.4755 7.48213 15.4001 7.52001 15.3332L9.12668 13.9999H19.42C19.5741 14.0037 19.7248 13.9539 19.8463 13.8591C19.9679 13.7643 20.0528 13.6303 20.0867 13.4799L21.1333 8.87324C20.7616 8.95849 20.3814 9.00099 20 8.99991Z" fill="black"/>
<path d="M20 7.33341C21.841 7.33341 23.3334 5.84103 23.3334 4.00008C23.3334 2.15913 21.841 0.666748 20 0.666748C18.1591 0.666748 16.6667 2.15913 16.6667 4.00008C16.6667 5.84103 18.1591 7.33341 20 7.33341Z" fill="black"/>
</svg>
